<mxfile host="app.diagrams.net" modified="2023-04-10T06:33:02.557Z" agent="Mozilla/5.0 (Windows NT 10.0; Win64; x64) AppleWebKit/537.36 (KHTML, like Gecko) Chrome/110.0.0.0 Safari/537.36" etag="6uTSzuRtBwticibhcKiV" version="21.1.5" type="github">
  <diagram name="Page-1" id="Ck3fTt-HM888tLe21iKQ">
    <mxGraphModel dx="822" dy="830" grid="1" gridSize="10" guides="1" tooltips="1" connect="1" arrows="1" fold="1" page="1" pageScale="1" pageWidth="850" pageHeight="1100" math="0" shadow="0">
      <root>
        <mxCell id="0" />
        <mxCell id="1" parent="0" />
        <mxCell id="z8rB2s8k8t27SP1FywNN-5" value="&lt;font style=&quot;font-size: 14px;&quot;&gt;Покупатель&lt;/font&gt;" style="text;strokeColor=none;fillColor=none;html=1;fontSize=24;fontStyle=1;verticalAlign=middle;align=center;" parent="1" vertex="1">
          <mxGeometry x="80" y="201" width="93" height="26" as="geometry" />
        </mxCell>
        <mxCell id="z8rB2s8k8t27SP1FywNN-3" value="" style="endArrow=classic;html=1;rounded=0;exitX=1;exitY=0.5;exitDx=0;exitDy=0;entryX=1;entryY=1;entryDx=0;entryDy=0;" parent="1" source="z8rB2s8k8t27SP1FywNN-1" target="z8rB2s8k8t27SP1FywNN-7" edge="1">
          <mxGeometry width="50" height="50" relative="1" as="geometry">
            <mxPoint x="410" y="225" as="sourcePoint" />
            <mxPoint x="610" y="218" as="targetPoint" />
          </mxGeometry>
        </mxCell>
        <mxCell id="z8rB2s8k8t27SP1FywNN-7" value="&lt;p style=&quot;line-height: 50%;&quot;&gt;&lt;span style=&quot;font-size: 14px;&quot;&gt;Выручка&lt;/span&gt;&lt;/p&gt;" style="text;strokeColor=none;fillColor=none;html=1;fontSize=24;fontStyle=1;verticalAlign=middle;align=center;" parent="1" vertex="1">
          <mxGeometry x="425" y="170" width="80" height="28" as="geometry" />
        </mxCell>
        <mxCell id="z8rB2s8k8t27SP1FywNN-8" value="" style="endArrow=classic;html=1;rounded=0;entryX=0.5;entryY=1;entryDx=0;entryDy=0;" parent="1" edge="1">
          <mxGeometry width="50" height="50" relative="1" as="geometry">
            <mxPoint x="306" y="294" as="sourcePoint" />
            <mxPoint x="306" y="254" as="targetPoint" />
          </mxGeometry>
        </mxCell>
        <mxCell id="z8rB2s8k8t27SP1FywNN-9" value="&lt;font style=&quot;font-size: 14px;&quot;&gt;Сотрудник&lt;br&gt;&lt;/font&gt;" style="text;strokeColor=none;fillColor=none;html=1;fontSize=24;fontStyle=1;verticalAlign=middle;align=center;" parent="1" vertex="1">
          <mxGeometry x="260" y="290" width="93" height="26" as="geometry" />
        </mxCell>
        <mxCell id="z8rB2s8k8t27SP1FywNN-20" value="" style="endArrow=classic;html=1;rounded=0;exitX=1;exitY=0.5;exitDx=0;exitDy=0;entryX=1;entryY=1;entryDx=0;entryDy=0;" parent="1" source="z8rB2s8k8t27SP1FywNN-16" target="z8rB2s8k8t27SP1FywNN-21" edge="1">
          <mxGeometry width="50" height="50" relative="1" as="geometry">
            <mxPoint x="769" y="838" as="sourcePoint" />
            <mxPoint x="930" y="835" as="targetPoint" />
          </mxGeometry>
        </mxCell>
        <mxCell id="z8rB2s8k8t27SP1FywNN-21" value="&lt;p style=&quot;line-height: 50%;&quot;&gt;&lt;font style=&quot;font-size: 14px;&quot;&gt;Выручка&lt;/font&gt;&lt;/p&gt;" style="text;strokeColor=none;fillColor=none;html=1;fontSize=24;fontStyle=1;verticalAlign=middle;align=center;" parent="1" vertex="1">
          <mxGeometry x="772" y="810" width="68" height="25" as="geometry" />
        </mxCell>
        <mxCell id="z8rB2s8k8t27SP1FywNN-51" style="edgeStyle=orthogonalEdgeStyle;rounded=0;orthogonalLoop=1;jettySize=auto;html=1;entryX=0.75;entryY=1;entryDx=0;entryDy=0;" parent="1" source="z8rB2s8k8t27SP1FywNN-23" target="z8rB2s8k8t27SP1FywNN-15" edge="1">
          <mxGeometry relative="1" as="geometry">
            <Array as="points">
              <mxPoint x="454" y="910" />
              <mxPoint x="568" y="910" />
            </Array>
          </mxGeometry>
        </mxCell>
        <mxCell id="z8rB2s8k8t27SP1FywNN-52" style="edgeStyle=orthogonalEdgeStyle;rounded=0;orthogonalLoop=1;jettySize=auto;html=1;entryX=0.25;entryY=1;entryDx=0;entryDy=0;" parent="1" source="z8rB2s8k8t27SP1FywNN-23" target="z8rB2s8k8t27SP1FywNN-16" edge="1">
          <mxGeometry relative="1" as="geometry">
            <Array as="points">
              <mxPoint x="454" y="910" />
              <mxPoint x="677" y="910" />
            </Array>
          </mxGeometry>
        </mxCell>
        <mxCell id="z8rB2s8k8t27SP1FywNN-53" style="edgeStyle=orthogonalEdgeStyle;rounded=0;orthogonalLoop=1;jettySize=auto;html=1;entryX=0.5;entryY=1;entryDx=0;entryDy=0;" parent="1" source="z8rB2s8k8t27SP1FywNN-23" target="z8rB2s8k8t27SP1FywNN-39" edge="1">
          <mxGeometry relative="1" as="geometry">
            <Array as="points">
              <mxPoint x="454" y="910" />
              <mxPoint x="190" y="910" />
            </Array>
          </mxGeometry>
        </mxCell>
        <mxCell id="z8rB2s8k8t27SP1FywNN-23" value="&lt;font style=&quot;font-size: 14px;&quot;&gt;Сотрудник&lt;br&gt;&lt;/font&gt;" style="text;strokeColor=none;fillColor=none;html=1;fontSize=24;fontStyle=1;verticalAlign=middle;align=center;" parent="1" vertex="1">
          <mxGeometry x="407" y="930" width="93" height="26" as="geometry" />
        </mxCell>
        <mxCell id="z8rB2s8k8t27SP1FywNN-28" value="" style="endArrow=classic;html=1;rounded=0;entryX=0;entryY=0.5;entryDx=0;entryDy=0;exitX=1;exitY=0.5;exitDx=0;exitDy=0;edgeStyle=orthogonalEdgeStyle;" parent="1" source="z8rB2s8k8t27SP1FywNN-12" target="z8rB2s8k8t27SP1FywNN-15" edge="1">
          <mxGeometry width="50" height="50" relative="1" as="geometry">
            <mxPoint x="277" y="885" as="sourcePoint" />
            <mxPoint x="327" y="835" as="targetPoint" />
          </mxGeometry>
        </mxCell>
        <mxCell id="z8rB2s8k8t27SP1FywNN-29" value="" style="endArrow=classic;html=1;rounded=0;entryX=0;entryY=0.5;entryDx=0;entryDy=0;exitX=1;exitY=0.5;exitDx=0;exitDy=0;edgeStyle=orthogonalEdgeStyle;" parent="1" source="z8rB2s8k8t27SP1FywNN-15" target="z8rB2s8k8t27SP1FywNN-16" edge="1">
          <mxGeometry width="50" height="50" relative="1" as="geometry">
            <mxPoint x="596" y="764" as="sourcePoint" />
            <mxPoint x="647" y="844" as="targetPoint" />
          </mxGeometry>
        </mxCell>
        <mxCell id="z8rB2s8k8t27SP1FywNN-30" value="" style="endArrow=block;html=1;rounded=0;entryX=0.5;entryY=1;entryDx=0;entryDy=0;endFill=1;startArrow=block;startFill=1;" parent="1" edge="1">
          <mxGeometry width="50" height="50" relative="1" as="geometry">
            <mxPoint x="225" y="294" as="sourcePoint" />
            <mxPoint x="225" y="254" as="targetPoint" />
          </mxGeometry>
        </mxCell>
        <mxCell id="z8rB2s8k8t27SP1FywNN-31" value="&lt;p style=&quot;line-height: 50%;&quot;&gt;&lt;font style=&quot;font-size: 14px;&quot;&gt;СУБД&lt;br&gt;покупателей&lt;br&gt;&lt;/font&gt;&lt;/p&gt;" style="text;strokeColor=none;fillColor=none;html=1;fontSize=24;fontStyle=1;verticalAlign=middle;align=center;" parent="1" vertex="1">
          <mxGeometry x="180" y="298" width="93" height="26" as="geometry" />
        </mxCell>
        <mxCell id="z8rB2s8k8t27SP1FywNN-57" style="edgeStyle=orthogonalEdgeStyle;rounded=0;orthogonalLoop=1;jettySize=auto;html=1;entryX=0.25;entryY=1;entryDx=0;entryDy=0;startArrow=block;startFill=1;" parent="1" source="z8rB2s8k8t27SP1FywNN-32" target="z8rB2s8k8t27SP1FywNN-15" edge="1">
          <mxGeometry relative="1" as="geometry" />
        </mxCell>
        <mxCell id="z8rB2s8k8t27SP1FywNN-32" value="&lt;p style=&quot;line-height: 50%;&quot;&gt;&lt;font style=&quot;font-size: 14px;&quot;&gt;СУБД&lt;br&gt;покупателей&lt;br&gt;&lt;/font&gt;&lt;/p&gt;" style="text;strokeColor=none;fillColor=none;html=1;fontSize=24;fontStyle=1;verticalAlign=middle;align=center;" parent="1" vertex="1">
          <mxGeometry x="433" y="825" width="93" height="26" as="geometry" />
        </mxCell>
        <mxCell id="z8rB2s8k8t27SP1FywNN-34" value="" style="group" parent="1" vertex="1" connectable="0">
          <mxGeometry x="477.5" y="715" width="120.5" height="60" as="geometry" />
        </mxCell>
        <mxCell id="z8rB2s8k8t27SP1FywNN-15" value="&lt;b&gt;Оформление&lt;br&gt;заказа&lt;/b&gt;" style="rounded=0;whiteSpace=wrap;html=1;" parent="z8rB2s8k8t27SP1FywNN-34" vertex="1">
          <mxGeometry width="120" height="60" as="geometry" />
        </mxCell>
        <mxCell id="z8rB2s8k8t27SP1FywNN-18" value="&lt;font style=&quot;font-size: 9px;&quot;&gt;А3&lt;/font&gt;" style="text;strokeColor=none;fillColor=none;html=1;fontSize=24;fontStyle=1;verticalAlign=middle;align=center;" parent="z8rB2s8k8t27SP1FywNN-34" vertex="1">
          <mxGeometry x="100.5" y="38" width="20" height="20" as="geometry" />
        </mxCell>
        <mxCell id="z8rB2s8k8t27SP1FywNN-35" value="" style="group" parent="1" vertex="1" connectable="0">
          <mxGeometry x="300" y="625" width="123" height="60" as="geometry" />
        </mxCell>
        <mxCell id="z8rB2s8k8t27SP1FywNN-12" value="&lt;b&gt;Выбор&lt;br&gt;видеоматериала&lt;/b&gt;" style="rounded=0;whiteSpace=wrap;html=1;" parent="z8rB2s8k8t27SP1FywNN-35" vertex="1">
          <mxGeometry width="120" height="60" as="geometry" />
        </mxCell>
        <mxCell id="z8rB2s8k8t27SP1FywNN-17" value="&lt;font style=&quot;font-size: 9px;&quot;&gt;А2&lt;/font&gt;" style="text;strokeColor=none;fillColor=none;html=1;fontSize=24;fontStyle=1;verticalAlign=middle;align=center;" parent="z8rB2s8k8t27SP1FywNN-35" vertex="1">
          <mxGeometry x="103" y="40" width="20" height="20" as="geometry" />
        </mxCell>
        <mxCell id="z8rB2s8k8t27SP1FywNN-37" value="" style="group" parent="1" vertex="1" connectable="0">
          <mxGeometry x="647" y="805" width="122" height="60" as="geometry" />
        </mxCell>
        <mxCell id="z8rB2s8k8t27SP1FywNN-16" value="&lt;b&gt;Продажа&lt;br&gt;видеоматериала&lt;/b&gt;" style="rounded=0;whiteSpace=wrap;html=1;" parent="z8rB2s8k8t27SP1FywNN-37" vertex="1">
          <mxGeometry width="120" height="60" as="geometry" />
        </mxCell>
        <mxCell id="z8rB2s8k8t27SP1FywNN-19" value="&lt;font style=&quot;font-size: 9px;&quot;&gt;А4&lt;/font&gt;" style="text;strokeColor=none;fillColor=none;html=1;fontSize=24;fontStyle=1;verticalAlign=middle;align=center;" parent="z8rB2s8k8t27SP1FywNN-37" vertex="1">
          <mxGeometry x="102" y="39" width="20" height="20" as="geometry" />
        </mxCell>
        <mxCell id="z8rB2s8k8t27SP1FywNN-42" style="edgeStyle=orthogonalEdgeStyle;rounded=0;orthogonalLoop=1;jettySize=auto;html=1;entryX=0.5;entryY=0;entryDx=0;entryDy=0;" parent="1" source="z8rB2s8k8t27SP1FywNN-39" target="z8rB2s8k8t27SP1FywNN-12" edge="1">
          <mxGeometry relative="1" as="geometry" />
        </mxCell>
        <mxCell id="z8rB2s8k8t27SP1FywNN-43" style="edgeStyle=orthogonalEdgeStyle;rounded=0;orthogonalLoop=1;jettySize=auto;html=1;entryX=0.25;entryY=0;entryDx=0;entryDy=0;" parent="1" source="z8rB2s8k8t27SP1FywNN-39" target="z8rB2s8k8t27SP1FywNN-15" edge="1">
          <mxGeometry relative="1" as="geometry">
            <mxPoint x="510" y="710" as="targetPoint" />
          </mxGeometry>
        </mxCell>
        <mxCell id="z8rB2s8k8t27SP1FywNN-41" value="" style="group" parent="1" vertex="1" connectable="0">
          <mxGeometry x="205" y="140" width="215" height="115" as="geometry" />
        </mxCell>
        <mxCell id="z8rB2s8k8t27SP1FywNN-1" value="&lt;b&gt;Продажа видеоматериалов&lt;/b&gt;" style="rounded=0;whiteSpace=wrap;html=1;" parent="z8rB2s8k8t27SP1FywNN-41" vertex="1">
          <mxGeometry width="215" height="115.00000000000001" as="geometry" />
        </mxCell>
        <mxCell id="z8rB2s8k8t27SP1FywNN-4" value="&lt;font style=&quot;font-size: 9px;&quot;&gt;А0&lt;/font&gt;" style="text;strokeColor=none;fillColor=none;html=1;fontSize=24;fontStyle=1;verticalAlign=middle;align=center;" parent="z8rB2s8k8t27SP1FywNN-41" vertex="1">
          <mxGeometry x="195" y="84.33333333333334" width="20" height="30.666666666666668" as="geometry" />
        </mxCell>
        <mxCell id="z8rB2s8k8t27SP1FywNN-44" value="" style="group" parent="1" vertex="1" connectable="0">
          <mxGeometry x="199" y="629" width="93" height="26" as="geometry" />
        </mxCell>
        <mxCell id="z8rB2s8k8t27SP1FywNN-13" value="&lt;font style=&quot;font-size: 14px;&quot;&gt;Покупатель&lt;/font&gt;" style="text;strokeColor=none;fillColor=none;html=1;fontSize=24;fontStyle=1;verticalAlign=middle;align=center;" parent="z8rB2s8k8t27SP1FywNN-44" vertex="1">
          <mxGeometry width="93" height="26" as="geometry" />
        </mxCell>
        <mxCell id="z8rB2s8k8t27SP1FywNN-38" value="" style="endArrow=classic;html=1;rounded=0;entryX=0;entryY=0.5;entryDx=0;entryDy=0;strokeColor=default;exitX=0;exitY=1;exitDx=0;exitDy=0;" parent="z8rB2s8k8t27SP1FywNN-44" source="z8rB2s8k8t27SP1FywNN-13" target="z8rB2s8k8t27SP1FywNN-12" edge="1">
          <mxGeometry width="50" height="50" relative="1" as="geometry">
            <mxPoint x="-12" y="26" as="sourcePoint" />
            <mxPoint x="94" y="36" as="targetPoint" />
          </mxGeometry>
        </mxCell>
        <mxCell id="z8rB2s8k8t27SP1FywNN-54" value="" style="endArrow=classic;html=1;rounded=0;exitX=0;exitY=1;exitDx=0;exitDy=0;entryX=0;entryY=0.75;entryDx=0;entryDy=0;" parent="1" source="z8rB2s8k8t27SP1FywNN-5" target="z8rB2s8k8t27SP1FywNN-1" edge="1">
          <mxGeometry width="50" height="50" relative="1" as="geometry">
            <mxPoint x="30" y="230" as="sourcePoint" />
            <mxPoint x="188" y="230" as="targetPoint" />
          </mxGeometry>
        </mxCell>
        <mxCell id="z8rB2s8k8t27SP1FywNN-55" value="&lt;font style=&quot;font-size: 14px;&quot;&gt;Видеоматериалы&lt;/font&gt;" style="text;strokeColor=none;fillColor=none;html=1;fontSize=24;fontStyle=1;verticalAlign=middle;align=center;" parent="1" vertex="1">
          <mxGeometry x="80" y="148" width="120" height="27" as="geometry" />
        </mxCell>
        <mxCell id="z8rB2s8k8t27SP1FywNN-56" value="" style="endArrow=classic;html=1;rounded=0;exitX=0;exitY=1;exitDx=0;exitDy=0;entryX=0;entryY=0.75;entryDx=0;entryDy=0;" parent="1" source="z8rB2s8k8t27SP1FywNN-55" edge="1">
          <mxGeometry width="50" height="50" relative="1" as="geometry">
            <mxPoint x="30" y="180" as="sourcePoint" />
            <mxPoint x="205" y="176" as="targetPoint" />
          </mxGeometry>
        </mxCell>
        <mxCell id="z8rB2s8k8t27SP1FywNN-59" value="" style="endArrow=classic;html=1;rounded=0;entryX=0;entryY=0.5;entryDx=0;entryDy=0;exitX=0;exitY=1;exitDx=0;exitDy=0;" parent="1" source="z8rB2s8k8t27SP1FywNN-60" target="z8rB2s8k8t27SP1FywNN-39" edge="1">
          <mxGeometry width="50" height="50" relative="1" as="geometry">
            <mxPoint y="560" as="sourcePoint" />
            <mxPoint x="110" y="565" as="targetPoint" />
          </mxGeometry>
        </mxCell>
        <mxCell id="z8rB2s8k8t27SP1FywNN-60" value="&lt;font style=&quot;font-size: 14px;&quot;&gt;Видеоматериалы&lt;/font&gt;" style="text;strokeColor=none;fillColor=none;html=1;fontSize=24;fontStyle=1;verticalAlign=middle;align=center;" parent="1" vertex="1">
          <mxGeometry x="9" y="540" width="104" height="20" as="geometry" />
        </mxCell>
        <mxCell id="z8rB2s8k8t27SP1FywNN-61" value="" style="endArrow=classic;html=1;rounded=0;entryX=0.163;entryY=0.017;entryDx=0;entryDy=0;entryPerimeter=0;exitX=0.5;exitY=1;exitDx=0;exitDy=0;" parent="1" source="z8rB2s8k8t27SP1FywNN-69" target="z8rB2s8k8t27SP1FywNN-1" edge="1">
          <mxGeometry width="50" height="50" relative="1" as="geometry">
            <mxPoint x="240" y="60" as="sourcePoint" />
            <mxPoint x="290" y="60" as="targetPoint" />
          </mxGeometry>
        </mxCell>
        <mxCell id="z8rB2s8k8t27SP1FywNN-65" style="edgeStyle=orthogonalEdgeStyle;rounded=0;orthogonalLoop=1;jettySize=auto;html=1;entryX=0.5;entryY=0;entryDx=0;entryDy=0;" parent="1" source="z8rB2s8k8t27SP1FywNN-64" target="z8rB2s8k8t27SP1FywNN-39" edge="1">
          <mxGeometry relative="1" as="geometry" />
        </mxCell>
        <mxCell id="z8rB2s8k8t27SP1FywNN-66" style="edgeStyle=orthogonalEdgeStyle;rounded=0;orthogonalLoop=1;jettySize=auto;html=1;entryX=0.75;entryY=0;entryDx=0;entryDy=0;" parent="1" source="z8rB2s8k8t27SP1FywNN-64" target="z8rB2s8k8t27SP1FywNN-15" edge="1">
          <mxGeometry relative="1" as="geometry">
            <Array as="points">
              <mxPoint x="190" y="490" />
              <mxPoint x="568" y="490" />
            </Array>
          </mxGeometry>
        </mxCell>
        <mxCell id="z8rB2s8k8t27SP1FywNN-64" value="&lt;p style=&quot;line-height: 40%;&quot;&gt;&lt;font style=&quot;font-size: 14px;&quot;&gt;Прайс-лист&lt;br&gt;закупок&lt;br&gt;&lt;/font&gt;&lt;/p&gt;" style="text;strokeColor=none;fillColor=none;html=1;fontSize=24;fontStyle=1;verticalAlign=middle;align=center;" parent="1" vertex="1">
          <mxGeometry x="145" y="430" width="90" height="37" as="geometry" />
        </mxCell>
        <mxCell id="z8rB2s8k8t27SP1FywNN-68" value="" style="group" parent="1" vertex="1" connectable="0">
          <mxGeometry x="130" y="530" width="120" height="60" as="geometry" />
        </mxCell>
        <mxCell id="z8rB2s8k8t27SP1FywNN-39" value="&lt;b&gt;Пополнение каталога&lt;/b&gt;" style="rounded=0;whiteSpace=wrap;html=1;" parent="z8rB2s8k8t27SP1FywNN-68" vertex="1">
          <mxGeometry width="120" height="60" as="geometry" />
        </mxCell>
        <mxCell id="z8rB2s8k8t27SP1FywNN-67" value="&lt;font style=&quot;font-size: 9px;&quot;&gt;А1&lt;/font&gt;" style="text;strokeColor=none;fillColor=none;html=1;fontSize=24;fontStyle=1;verticalAlign=middle;align=center;" parent="z8rB2s8k8t27SP1FywNN-68" vertex="1">
          <mxGeometry x="100" y="40" width="20" height="20" as="geometry" />
        </mxCell>
        <mxCell id="z8rB2s8k8t27SP1FywNN-69" value="&lt;p style=&quot;line-height: 40%;&quot;&gt;&lt;font style=&quot;font-size: 14px;&quot;&gt;Прайс-лист&lt;br&gt;закупок&lt;br&gt;&lt;/font&gt;&lt;/p&gt;" style="text;strokeColor=none;fillColor=none;html=1;fontSize=24;fontStyle=1;verticalAlign=middle;align=center;" parent="1" vertex="1">
          <mxGeometry x="195" y="68" width="90" height="37" as="geometry" />
        </mxCell>
        <mxCell id="z8rB2s8k8t27SP1FywNN-70" value="&lt;p style=&quot;line-height: 40%;&quot;&gt;&lt;font style=&quot;font-size: 14px;&quot;&gt;Прайс-лист&lt;br&gt;закупки&lt;br&gt;&lt;/font&gt;&lt;/p&gt;" style="text;strokeColor=none;fillColor=none;html=1;fontSize=24;fontStyle=1;verticalAlign=middle;align=center;" parent="1" vertex="1">
          <mxGeometry x="692" y="919" width="90" height="37" as="geometry" />
        </mxCell>
        <mxCell id="z8rB2s8k8t27SP1FywNN-72" style="edgeStyle=orthogonalEdgeStyle;rounded=0;orthogonalLoop=1;jettySize=auto;html=1;exitX=0.75;exitY=1;exitDx=0;exitDy=0;entryX=0.5;entryY=0;entryDx=0;entryDy=0;" parent="1" source="z8rB2s8k8t27SP1FywNN-16" target="z8rB2s8k8t27SP1FywNN-70" edge="1">
          <mxGeometry relative="1" as="geometry" />
        </mxCell>
        <mxCell id="z8rB2s8k8t27SP1FywNN-74" style="edgeStyle=orthogonalEdgeStyle;rounded=0;orthogonalLoop=1;jettySize=auto;html=1;entryX=0.847;entryY=1.009;entryDx=0;entryDy=0;entryPerimeter=0;startArrow=block;startFill=1;endArrow=none;endFill=0;" parent="1" source="z8rB2s8k8t27SP1FywNN-73" target="z8rB2s8k8t27SP1FywNN-1" edge="1">
          <mxGeometry relative="1" as="geometry" />
        </mxCell>
        <mxCell id="z8rB2s8k8t27SP1FywNN-73" value="&lt;p style=&quot;line-height: 40%;&quot;&gt;&lt;font style=&quot;font-size: 14px;&quot;&gt;Прайс-лист&lt;br&gt;закупки&lt;br&gt;&lt;/font&gt;&lt;/p&gt;" style="text;strokeColor=none;fillColor=none;html=1;fontSize=24;fontStyle=1;verticalAlign=middle;align=center;" parent="1" vertex="1">
          <mxGeometry x="342" y="294" width="90" height="37" as="geometry" />
        </mxCell>
        <mxCell id="z8rB2s8k8t27SP1FywNN-78" value="&lt;p style=&quot;line-height: 50%;&quot;&gt;&lt;font style=&quot;font-size: 14px;&quot;&gt;Корзина&lt;/font&gt;&lt;/p&gt;" style="text;strokeColor=none;fillColor=none;html=1;fontSize=24;fontStyle=1;verticalAlign=middle;align=center;" parent="1" vertex="1">
          <mxGeometry x="340" y="730" width="68" height="28" as="geometry" />
        </mxCell>
        <mxCell id="z8rB2s8k8t27SP1FywNN-79" value="" style="curved=1;endArrow=classic;html=1;rounded=0;exitX=1;exitY=0;exitDx=0;exitDy=0;" parent="1" source="z8rB2s8k8t27SP1FywNN-78" edge="1">
          <mxGeometry width="50" height="50" relative="1" as="geometry">
            <mxPoint x="380" y="760" as="sourcePoint" />
            <mxPoint x="450" y="690" as="targetPoint" />
            <Array as="points">
              <mxPoint x="440" y="730" />
              <mxPoint x="400" y="690" />
            </Array>
          </mxGeometry>
        </mxCell>
        <mxCell id="z8rB2s8k8t27SP1FywNN-80" value="&lt;p style=&quot;line-height: 50%;&quot;&gt;&lt;font style=&quot;font-size: 14px;&quot;&gt;Заказ&lt;/font&gt;&lt;/p&gt;" style="text;strokeColor=none;fillColor=none;html=1;fontSize=24;fontStyle=1;verticalAlign=middle;align=center;" parent="1" vertex="1">
          <mxGeometry x="670" y="690" width="68" height="28" as="geometry" />
        </mxCell>
        <mxCell id="z8rB2s8k8t27SP1FywNN-82" value="" style="curved=1;endArrow=classic;html=1;rounded=0;exitX=0;exitY=1;exitDx=0;exitDy=0;" parent="1" source="z8rB2s8k8t27SP1FywNN-80" edge="1">
          <mxGeometry width="50" height="50" relative="1" as="geometry">
            <mxPoint x="640" y="700" as="sourcePoint" />
            <mxPoint x="620" y="780" as="targetPoint" />
            <Array as="points">
              <mxPoint x="620" y="740" />
              <mxPoint x="660" y="760" />
            </Array>
          </mxGeometry>
        </mxCell>
        <mxCell id="z8rB2s8k8t27SP1FywNN-83" value="&lt;p style=&quot;line-height: 50%;&quot;&gt;&lt;span style=&quot;font-size: 14px;&quot;&gt;Заполненный&lt;br&gt;каталог&lt;/span&gt;&lt;/p&gt;" style="text;strokeColor=none;fillColor=none;html=1;fontSize=24;fontStyle=1;verticalAlign=middle;align=center;" parent="1" vertex="1">
          <mxGeometry x="400" y="512" width="68" height="28" as="geometry" />
        </mxCell>
        <mxCell id="z8rB2s8k8t27SP1FywNN-84" value="" style="curved=1;endArrow=classic;html=1;rounded=0;exitX=0;exitY=1;exitDx=0;exitDy=0;" parent="1" source="z8rB2s8k8t27SP1FywNN-83" edge="1">
          <mxGeometry width="50" height="50" relative="1" as="geometry">
            <mxPoint x="290" y="540" as="sourcePoint" />
            <mxPoint x="350" y="560" as="targetPoint" />
            <Array as="points">
              <mxPoint x="390" y="560" />
              <mxPoint x="360" y="540" />
            </Array>
          </mxGeometry>
        </mxCell>
      </root>
    </mxGraphModel>
  </diagram>
</mxfile>
